<?xml version="1.0" encoding="UTF-8" standalone="no"?>
<!-- Created with Inkscape (http://www.inkscape.org/) -->

<svg
   width="297mm"
   height="210mm"
   viewBox="0 0 297 210"
   version="1.1"
   id="svg1428"
   inkscape:version="1.2 (dc2aedaf03, 2022-05-15)"
   sodipodi:docname="Electrical - Nodes.svg"
   xmlns:inkscape="http://www.inkscape.org/namespaces/inkscape"
   xmlns:sodipodi="http://sodipodi.sourceforge.net/DTD/sodipodi-0.dtd"
   xmlns:xlink="http://www.w3.org/1999/xlink"
   xmlns="http://www.w3.org/2000/svg"
   xmlns:svg="http://www.w3.org/2000/svg">
  <sodipodi:namedview
     id="namedview1430"
     pagecolor="#ffffff"
     bordercolor="#000000"
     borderopacity="0.25"
     inkscape:showpageshadow="2"
     inkscape:pageopacity="0.0"
     inkscape:pagecheckerboard="0"
     inkscape:deskcolor="#d1d1d1"
     inkscape:document-units="mm"
     showgrid="true"
     inkscape:zoom="2.8900746"
     inkscape:cx="193.93963"
     inkscape:cy="133.90658"
     inkscape:window-width="1920"
     inkscape:window-height="1049"
     inkscape:window-x="1920"
     inkscape:window-y="0"
     inkscape:window-maximized="1"
     inkscape:current-layer="layer1">
    <inkscape:grid
       type="xygrid"
       id="grid1549"
       spacingx="0.5"
       spacingy="0.5"
       units="mm" />
  </sodipodi:namedview>
  <defs
     id="defs1425">
    <symbol
       id="g6096">
      <path
         style="fill:none;fill-opacity:1;stroke:#000000;stroke-width:0.499999;stroke-linecap:round;stroke-linejoin:round;stroke-miterlimit:4;stroke-dasharray:none;stroke-dashoffset:0;stroke-opacity:1"
         d="m 12.5,7.5 h 3.75"
         id="path5818"
         sodipodi:nodetypes="cc" />
      <path
         style="fill:none;fill-opacity:1;stroke:#000000;stroke-width:0.499999;stroke-linecap:round;stroke-linejoin:round;stroke-miterlimit:4;stroke-dasharray:none;stroke-dashoffset:0;stroke-opacity:1"
         d="M 13.75,6.250001 16.24999,7.499998 13.75,8.75"
         id="path5820" />
    </symbol>
    <symbol
       id="g6100">
      <path
         style="fill:none;fill-opacity:1;stroke:#000000;stroke-width:0.499999;stroke-linecap:round;stroke-linejoin:round;stroke-miterlimit:4;stroke-dasharray:none;stroke-dashoffset:0;stroke-opacity:1"
         d="M 25,7.5 H 23.75"
         id="path5824"
         sodipodi:nodetypes="cc" />
      <path
         style="fill:none;fill-opacity:1;stroke:#000000;stroke-width:0.499999;stroke-linecap:round;stroke-linejoin:round;stroke-miterlimit:4;stroke-dasharray:none;stroke-dashoffset:0;stroke-opacity:1"
         d="M 21.25,6.250001 23.74999,7.499998 21.25,8.75"
         id="path5826" />
    </symbol>
    <symbol
       id="g6103">
      <path
         style="fill:#000000;stroke-width:0.273869"
         d="M 35,7.5 31.25,6 v 3 z"
         id="path5830"
         sodipodi:nodetypes="cccc" />
    </symbol>
    <symbol
       id="g6106">
      <ellipse
         style="fill:#000000;fill-opacity:1;stroke:none;stroke-width:0.999997;stroke-linecap:round;stroke-miterlimit:4;stroke-dasharray:none;stroke-dashoffset:0;stroke-opacity:1"
         id="ellipse5834"
         cx="40"
         cy="7.5"
         rx="0.99999851"
         ry="1" />
    </symbol>
    <symbol
       id="g6109">
      <circle
         style="fill:#ffffff;fill-opacity:1;stroke:#000000;stroke-width:0.5;stroke-linecap:square;stroke-miterlimit:4;stroke-dasharray:none;stroke-opacity:1"
         id="circle5838"
         cx="47.5"
         cy="7.5"
         r="1.25" />
    </symbol>
    <symbol
       id="g6113">
      <path
         style="fill:none;fill-opacity:1;stroke:#000000;stroke-width:0.5;stroke-linecap:round;stroke-miterlimit:4;stroke-dasharray:none;stroke-dashoffset:0;stroke-opacity:1"
         d="m 57.5,5 v 5"
         id="path5626"
         sodipodi:nodetypes="cc" />
      <path
         id="path5628"
         style="fill:none;stroke:#000000;stroke-width:0.5;stroke-linecap:round;stroke-dasharray:none"
         d="m 60,7.5 h -0.83333 c 0,-0.920475 -0.7462,-1.666667 -1.66667,-1.666667 -0.92047,0 -1.66667,0.746192 -1.66667,1.666667 H 55"
         sodipodi:nodetypes="csc" />
    </symbol>
    <symbol
       id="g6117">
      <path
         style="stroke-width:0.5;stroke-linecap:round;stroke-miterlimit:6;stroke-dasharray:none"
         fill="none"
         stroke="#000000"
         d="M 12.5,19.778637 V 17.5"
         stroke-width="0.440239"
         stroke-linecap="round"
         stroke-miterlimit="6"
         id="path5842"
         sodipodi:nodetypes="cc" />
      <path
         style="fill:none;stroke-width:0.5;stroke-linecap:square;stroke-linejoin:miter;stroke-miterlimit:6;stroke-dasharray:none"
         fill="#ffffff"
         stroke="#000000"
         d="m 7.5,20 5,5 5,-5 z"
         stroke-width="0.440239"
         stroke-linecap="round"
         stroke-linejoin="round"
         stroke-miterlimit="6"
         id="path5844"
         sodipodi:nodetypes="cccc" />
    </symbol>
    <symbol
       id="g6123">
      <path
         style="stroke-width:0.5;stroke-linecap:round;stroke-miterlimit:6;stroke-dasharray:none"
         fill="none"
         stroke="#000000"
         d="M 25,20 V 17.5"
         stroke-width="0.440239"
         stroke-linecap="round"
         stroke-miterlimit="6"
         id="path5632"
         sodipodi:nodetypes="cc" />
      <path
         style="stroke-width:0.5;stroke-linecap:square;stroke-miterlimit:6;stroke-dasharray:none"
         fill="none"
         stroke="#000000"
         d="M 29.76274,20 H 20.23726"
         stroke-width="0.440239"
         stroke-linecap="round"
         stroke-miterlimit="6"
         id="path5634" />
      <path
         style="stroke-width:0.5;stroke-linecap:square;stroke-miterlimit:6;stroke-dasharray:none"
         fill="none"
         stroke="#000000"
         d="M 27.85764,22 H 22.14237"
         stroke-width="0.440239"
         stroke-linecap="round"
         stroke-miterlimit="6"
         id="path5636" />
      <path
         style="stroke-width:0.5;stroke-linecap:square;stroke-miterlimit:6;stroke-dasharray:none"
         fill="none"
         stroke="#000000"
         d="M 25.95255,24 H 24.04744"
         stroke-width="0.440239"
         stroke-linecap="round"
         stroke-miterlimit="6"
         id="path5638" />
    </symbol>
    <symbol
       id="g6129">
      <path
         style="fill:none;fill-opacity:1;stroke:#000000;stroke-width:0.5;stroke-linecap:butt;stroke-linejoin:miter;stroke-miterlimit:4;stroke-dasharray:none;stroke-dashoffset:0;stroke-opacity:1"
         d="m 32.25,23.5 1.5,-3.5 h 7.5 l -1.5,3.5"
         id="path5642"
         sodipodi:nodetypes="cccc" />
      <path
         style="fill:none;fill-opacity:1;stroke:#000000;stroke-width:0.5;stroke-linecap:butt;stroke-linejoin:miter;stroke-miterlimit:4;stroke-dasharray:none;stroke-dashoffset:0;stroke-opacity:1"
         d="m 36.25,20 -1.5,3.5"
         id="path5644"
         sodipodi:nodetypes="cc" />
      <path
         style="fill:none;fill-opacity:1;stroke:#000000;stroke-width:0.5;stroke-linecap:butt;stroke-linejoin:miter;stroke-miterlimit:4;stroke-dasharray:none;stroke-dashoffset:0;stroke-opacity:1"
         d="m 38.75,20 -1.5,3.5"
         id="path5646"
         sodipodi:nodetypes="cc" />
      <path
         style="fill:none;fill-opacity:1;stroke:#000000;stroke-width:0.5;stroke-linecap:round;stroke-linejoin:miter;stroke-miterlimit:4;stroke-dasharray:none;stroke-dashoffset:0;stroke-opacity:1"
         d="m 37.5,17.5 v 2.326625"
         id="path5648"
         sodipodi:nodetypes="cc" />
    </symbol>
    <symbol
       id="g6136">
      <path
         style="fill:none;fill-opacity:1;stroke:#000000;stroke-width:1;stroke-linecap:square;stroke-linejoin:miter;stroke-miterlimit:4;stroke-dasharray:none;stroke-dashoffset:0;stroke-opacity:1"
         d="m 8.75,35 h 7.5"
         id="path5694" />
      <path
         style="fill:none;fill-opacity:1;stroke:#000000;stroke-width:0.5;stroke-linecap:round;stroke-linejoin:miter;stroke-miterlimit:4;stroke-dasharray:none;stroke-dashoffset:0;stroke-opacity:1"
         d="m 12.5,37.5 c 0,-2.5 0,-2.5 0,-2.5"
         id="path5696" />
      <path
         d="M 10.83245,32.886898 H 10.40912 L 9.29998,29.8008 h 0.42334 l 0.90593,2.611965 0.85513,-2.611965 h 0.4191 z"
         style="font-size:4.23333px;font-family:FreeSans;-inkscape-font-specification:'FreeSans, Normal';text-align:center;text-anchor:middle;stroke-width:0.5;stroke-linecap:round"
         id="path5698" />
      <path
         d="m 12.07704,32.753971 q 0,-0.137583 0.022,-0.272415 0.0248,-0.134831 0.0908,-0.280669 0.066,-0.145839 0.16235,-0.253154 0.0991,-0.110066 0.26416,-0.181609 0.16785,-0.07154 0.37698,-0.07154 0.65489,0 0.77321,0.654896 h -0.2614 q -0.044,-0.21463 -0.17336,-0.321945 -0.12933,-0.107315 -0.36872,-0.107315 -0.29168,0 -0.46228,0.222885 -0.16785,0.222885 -0.16785,0.608118 0,0.376978 0.1761,0.599863 0.17611,0.220133 0.47604,0.220133 0.24765,0 0.37973,-0.137584 0.13208,-0.140334 0.17886,-0.432011 h 0.26416 q -0.0908,0.795231 -0.8255,0.795231 -0.20638,0 -0.37148,-0.06879 -0.16234,-0.07154 -0.2614,-0.178858 -0.0963,-0.107315 -0.16235,-0.250402 -0.0633,-0.145838 -0.0881,-0.277918 -0.022,-0.13208 -0.022,-0.266911 z"
         style="font-size:2.75166px;font-family:FreeSans;-inkscape-font-specification:'FreeSans, Normal';text-align:center;baseline-shift:sub;text-anchor:middle;stroke-width:0.499999;stroke-linecap:round"
         id="path5700" />
      <path
         d="m 14.02797,32.753971 q 0,-0.137583 0.022,-0.272415 0.0248,-0.134831 0.0908,-0.280669 0.066,-0.145839 0.16235,-0.253154 0.0991,-0.110066 0.26416,-0.181609 0.16785,-0.07154 0.37697,-0.07154 0.6549,0 0.77322,0.654896 h -0.26141 q -0.044,-0.21463 -0.17335,-0.321945 -0.12933,-0.107315 -0.36872,-0.107315 -0.29168,0 -0.46228,0.222885 -0.16785,0.222885 -0.16785,0.608118 0,0.376978 0.1761,0.599863 0.17611,0.220133 0.47604,0.220133 0.24765,0 0.37973,-0.137584 0.13208,-0.140334 0.17886,-0.432011 h 0.26416 q -0.0908,0.795231 -0.8255,0.795231 -0.20638,0 -0.37148,-0.06879 -0.16235,-0.07154 -0.2614,-0.178858 -0.0963,-0.107315 -0.16235,-0.250402 -0.0633,-0.145838 -0.0881,-0.277918 -0.022,-0.13208 -0.022,-0.266911 z"
         style="font-size:2.75166px;font-family:FreeSans;-inkscape-font-specification:'FreeSans, Normal';text-align:center;baseline-shift:sub;text-anchor:middle;stroke-width:0.499999;stroke-linecap:round"
         id="path5702" />
    </symbol>
    <symbol
       id="g6143">
      <path
         style="fill:none;fill-opacity:1;stroke:#000000;stroke-width:1;stroke-linecap:square;stroke-linejoin:miter;stroke-miterlimit:4;stroke-dasharray:none;stroke-dashoffset:0;stroke-opacity:1"
         d="m 21.25,35 h 7.5"
         id="path5652" />
      <path
         style="fill:none;fill-opacity:1;stroke:#000000;stroke-width:0.5;stroke-linecap:round;stroke-linejoin:miter;stroke-miterlimit:4;stroke-dasharray:none;stroke-dashoffset:0;stroke-opacity:1"
         d="M 25,37.5 C 25,35 25,35 25,35"
         id="path5654" />
      <path
         d="M 23.36272,32.886898 H 22.93938 L 21.83025,29.8008 h 0.42333 l 0.90594,2.611965 0.85513,-2.611965 h 0.4191 z"
         style="font-size:4.23333px;font-family:FreeSans;-inkscape-font-specification:'FreeSans, Normal';text-align:center;text-anchor:middle;stroke-width:0.5;stroke-linecap:round"
         id="path5656" />
      <path
         d="M 24.71738,33.733564 V 31.7276 h 0.77321 q 0.38248,0 0.59987,0.266912 0.21738,0.266911 0.21738,0.734694 0,0.467783 -0.22014,0.737446 -0.21738,0.266912 -0.59711,0.266912 z m 0.2559,-0.225637 h 0.47329 q 0.29718,0 0.45127,-0.19812 0.15409,-0.19812 0.15409,-0.577849 0,-0.382481 -0.15409,-0.580601 -0.15409,-0.19812 -0.45127,-0.19812 h -0.47329 z"
         style="font-size:2.75166px;font-family:FreeSans;-inkscape-font-specification:'FreeSans, Normal';text-align:center;baseline-shift:sub;text-anchor:middle;stroke-width:0.499999;stroke-linecap:round"
         id="path5658" />
      <path
         d="M 26.63804,33.733564 V 31.7276 h 0.77321 q 0.38249,0 0.59987,0.266912 0.21738,0.266911 0.21738,0.734694 0,0.467783 -0.22013,0.737446 -0.21739,0.266912 -0.59712,0.266912 z m 0.2559,-0.225637 h 0.47329 q 0.29718,0 0.45127,-0.19812 0.15409,-0.19812 0.15409,-0.577849 0,-0.382481 -0.15409,-0.580601 -0.15409,-0.19812 -0.45127,-0.19812 h -0.47329 z"
         style="font-size:2.75166px;font-family:FreeSans;-inkscape-font-specification:'FreeSans, Normal';text-align:center;baseline-shift:sub;text-anchor:middle;stroke-width:0.499999;stroke-linecap:round"
         id="path5660" />
    </symbol>
    <symbol
       id="g6152">
      <path
         style="fill:none;fill-opacity:1;stroke:#000000;stroke-width:1;stroke-linecap:square;stroke-linejoin:miter;stroke-miterlimit:4;stroke-dasharray:none;stroke-dashoffset:0;stroke-opacity:1"
         d="m 33.75,35 h 7.5"
         id="path5708" />
      <path
         style="fill:none;fill-opacity:1;stroke:#000000;stroke-width:0.5;stroke-linecap:round;stroke-linejoin:miter;stroke-miterlimit:4;stroke-dasharray:none;stroke-dashoffset:0;stroke-opacity:1"
         d="m 37.5,37.5 c 0,-2.5 0,-2.5 0,-2.5"
         id="path5710" />
      <path
         d="m 34.18557,32.113102 v 0.296333 h -0.8763 v 0.876299 h -0.29634 v -0.876299 h -0.8763 v -0.296333 h 0.8763 v -0.876299 h 0.29634 v 0.876299 z"
         style="font-size:4.23333px;font-family:FreeSans;-inkscape-font-specification:'FreeSans, Normal';text-align:center;text-anchor:middle;stroke-width:0.5;stroke-linecap:round"
         id="path5712" />
      <path
         d="m 35.74292,31.074536 q -0.32173,0 -0.4445,0.177799 -0.11853,0.173567 -0.127,0.465667 h -0.37253 q 0.0212,-0.969433 0.9398,-0.969433 0.42756,0 0.66886,0.220133 0.24554,0.220134 0.24554,0.605367 0,0.457199 -0.4191,0.622299 0.27093,0.09313 0.38946,0.262467 0.11854,0.165099 0.11854,0.452966 0,0.427566 -0.2794,0.681566 -0.27517,0.254 -0.7366,0.254 -0.92287,0 -0.9906,-0.969433 h 0.37253 q 0.0212,0.325967 0.17357,0.4826 0.1524,0.156633 0.4572,0.156633 0.2921,0 0.4572,-0.156633 0.1651,-0.160867 0.1651,-0.4445 0,-0.546099 -0.6223,-0.546099 l -0.15664,0.0042 h -0.0466 v -0.317497 q 0.40216,-0.0085 0.56726,-0.1016 0.16934,-0.09313 0.16934,-0.368299 0,-0.237067 -0.14394,-0.372534 -0.1397,-0.139699 -0.38523,-0.139699 z"
         style="font-size:4.23333px;font-family:FreeSans;-inkscape-font-specification:'FreeSans, Normal';text-align:center;text-anchor:middle;stroke-width:0.5;stroke-linecap:round"
         id="path5714" />
      <path
         d="M 37.73258,33.309734 V 33.75 h -0.44026 v -0.440266 z"
         style="font-size:4.23333px;font-family:FreeSans;-inkscape-font-specification:'FreeSans, Normal';text-align:center;text-anchor:middle;stroke-width:0.5;stroke-linecap:round"
         id="path5716" />
      <path
         d="m 39.15497,31.074536 q -0.32173,0 -0.44449,0.177799 -0.11854,0.173567 -0.127,0.465667 h -0.37254 q 0.0212,-0.969433 0.9398,-0.969433 0.42757,0 0.66887,0.220133 0.24553,0.220134 0.24553,0.605367 0,0.457199 -0.4191,0.622299 0.27093,0.09313 0.38947,0.262467 0.11853,0.165099 0.11853,0.452966 0,0.427566 -0.2794,0.681566 -0.27517,0.254 -0.7366,0.254 -0.92286,0 -0.9906,-0.969433 h 0.37254 q 0.0212,0.325967 0.17356,0.4826 0.1524,0.156633 0.4572,0.156633 0.2921,0 0.4572,-0.156633 0.1651,-0.160867 0.1651,-0.4445 0,-0.546099 -0.6223,-0.546099 l -0.15663,0.0042 h -0.0466 v -0.317497 q 0.40217,-0.0085 0.56727,-0.1016 0.16933,-0.09313 0.16933,-0.368299 0,-0.237067 -0.14393,-0.372534 -0.1397,-0.139699 -0.38524,-0.139699 z"
         style="font-size:4.23333px;font-family:FreeSans;-inkscape-font-specification:'FreeSans, Normal';text-align:center;text-anchor:middle;stroke-width:0.5;stroke-linecap:round"
         id="path5718" />
      <path
         d="m 41.96167,33.75 h -0.42333 l -1.10913,-3.086097 h 0.42333 l 0.90593,2.611964 0.85513,-2.611964 h 0.4191 z"
         style="font-size:4.23333px;font-family:FreeSans;-inkscape-font-specification:'FreeSans, Normal';text-align:center;text-anchor:middle;stroke-width:0.5;stroke-linecap:round"
         id="path5720" />
    </symbol>
    <symbol
       id="g6159">
      <path
         style="fill:none;fill-opacity:1;stroke:#000000;stroke-width:1;stroke-linecap:square;stroke-linejoin:miter;stroke-miterlimit:4;stroke-dasharray:none;stroke-dashoffset:0;stroke-opacity:1"
         d="m 46.25,35 h 7.5"
         id="path5726" />
      <path
         style="fill:none;fill-opacity:1;stroke:#000000;stroke-width:0.5;stroke-linecap:round;stroke-linejoin:miter;stroke-miterlimit:4;stroke-dasharray:none;stroke-dashoffset:0;stroke-opacity:1"
         d="M 50,37.5 C 50,35 50,35 50,35"
         id="path5728" />
      <path
         d="M 48,32.203667 V 32.5 h -0.8763 v 0.876299 H 46.82737 V 32.5 h -0.8763 v -0.296333 h 0.8763 v -0.876299 h 0.29633 v 0.876299 z"
         style="font-size:4.23333px;font-family:FreeSans;-inkscape-font-specification:'FreeSans, Normal';text-align:center;text-anchor:middle;stroke-width:0.5;stroke-linecap:round"
         id="path5730" />
      <path
         d="m 50.52704,30.748569 v 0.3683 h -1.24883 l -0.11853,0.838199 q 0.24976,-0.182033 0.55456,-0.182033 0.4318,0 0.6985,0.2794 0.27094,0.275166 0.27094,0.719666 0,0.474133 -0.28787,0.774699 -0.28787,0.300567 -0.74083,0.300567 -0.17357,0 -0.32174,-0.0381 -0.14393,-0.0381 -0.2413,-0.0889 -0.0931,-0.05503 -0.17356,-0.1397 -0.0762,-0.0889 -0.11853,-0.1524 -0.0381,-0.06773 -0.0762,-0.1651 -0.0339,-0.1016 -0.0423,-0.1397 -0.008,-0.0381 -0.0212,-0.110066 h 0.37253 q 0.13123,0.503766 0.61383,0.503766 0.3048,0 0.47837,-0.186267 0.1778,-0.186266 0.1778,-0.507999 0,-0.334433 -0.1778,-0.524933 -0.1778,-0.194733 -0.47837,-0.194733 -0.17357,0 -0.29633,0.0635 -0.12277,0.05927 -0.254,0.2159 h -0.3429 l 0.22436,-1.634066 z"
         style="font-size:4.23333px;font-family:FreeSans;-inkscape-font-specification:'FreeSans, Normal';text-align:center;text-anchor:middle;stroke-width:0.5;stroke-linecap:round"
         id="path5732" />
      <path
         d="m 52.46167,33.75 h -0.42333 l -1.10913,-3.086097 h 0.42333 l 0.90593,2.611964 0.85514,-2.611964 h 0.4191 z"
         style="font-size:4.23333px;font-family:FreeSans;-inkscape-font-specification:'FreeSans, Normal';text-align:center;text-anchor:middle;stroke-width:0.5;stroke-linecap:round"
         id="path5734" />
    </symbol>
    <symbol
       id="g6167">
      <path
         style="fill:none;fill-opacity:1;stroke:#000000;stroke-width:1;stroke-linecap:square;stroke-linejoin:miter;stroke-miterlimit:4;stroke-dasharray:none;stroke-dashoffset:0;stroke-opacity:1"
         d="m 58.75,35 h 7.5"
         id="path5754" />
      <path
         style="fill:none;fill-opacity:1;stroke:#000000;stroke-width:0.5;stroke-linecap:round;stroke-linejoin:miter;stroke-miterlimit:4;stroke-dasharray:none;stroke-dashoffset:0;stroke-opacity:1"
         d="m 62.5,37.5 c 0,-2.5 0,-2.5 0,-2.5"
         id="path5756" />
      <path
         d="M 60,32.203667 V 32.5 h -0.8763 v 0.876299 H 58.82737 V 32.5 h -0.8763 v -0.296333 h 0.8763 v -0.876299 h 0.29633 v 0.876299 z"
         style="font-size:4.23333px;font-family:FreeSans;-inkscape-font-specification:'FreeSans, Normal';text-align:center;text-anchor:middle;stroke-width:0.5;stroke-linecap:round"
         id="path5758" />
      <path
         d="m 61.34877,31.612169 h -0.66464 v -0.2667 q 0.4318,-0.05503 0.56304,-0.1524 0.13123,-0.09737 0.2286,-0.4445 H 61.7213 V 33.75 h -0.37253 z"
         style="font-size:4.23333px;font-family:FreeSans;-inkscape-font-specification:'FreeSans, Normal';text-align:center;text-anchor:middle;stroke-width:0.5;stroke-linecap:round"
         id="path5760" />
      <path
         d="m 62.81773,31.789968 q 0.0296,-1.041399 0.9906,-1.041399 0.42757,0 0.69427,0.245533 0.2667,0.245534 0.2667,0.635 0,0.558799 -0.635,0.905932 l -0.42334,0.2286 Q 63.4358,32.911801 63.31726,33.051501 63.19873,33.1912 63.1691,33.3817 h 1.57903 V 33.75 H 62.75 q 0.0254,-0.4953 0.19896,-0.761999 0.17357,-0.270933 0.64347,-0.537633 l 0.38947,-0.220133 q 0.4064,-0.232833 0.4064,-0.592667 0,-0.241299 -0.16934,-0.402166 -0.16933,-0.160866 -0.42333,-0.160866 -0.56303,0 -0.60537,0.715432 z"
         style="font-size:4.23333px;font-family:FreeSans;-inkscape-font-specification:'FreeSans, Normal';text-align:center;text-anchor:middle;stroke-width:0.5;stroke-linecap:round"
         id="path5762" />
      <path
         d="m 66.55576,33.75 h -0.42333 l -1.10914,-3.086097 h 0.42334 l 0.90593,2.611964 0.85513,-2.611964 h 0.4191 z"
         style="font-size:4.23333px;font-family:FreeSans;-inkscape-font-specification:'FreeSans, Normal';text-align:center;text-anchor:middle;stroke-width:0.5;stroke-linecap:round"
         id="path5764" />
    </symbol>
    <symbol
       id="g6175">
      <path
         style="fill:none;fill-opacity:1;stroke:#000000;stroke-width:1;stroke-linecap:square;stroke-linejoin:miter;stroke-miterlimit:4;stroke-dasharray:none;stroke-dashoffset:0;stroke-opacity:1"
         d="m 71.25,35 h 7.5"
         id="path5786" />
      <path
         style="fill:none;fill-opacity:1;stroke:#000000;stroke-width:0.5;stroke-linecap:round;stroke-linejoin:miter;stroke-miterlimit:4;stroke-dasharray:none;stroke-dashoffset:0;stroke-opacity:1"
         d="M 75,37.5 C 75,35 75,35 75,35"
         id="path5788" />
      <path
         d="m 72.25,32.25 v 0.296333 h -0.8763 v 0.876299 h -0.29633 v -0.876299 h -0.8763 V 32.25 h 0.8763 V 31.373701 H 71.3737 V 32.25 Z"
         style="font-size:4.23333px;font-family:FreeSans;-inkscape-font-specification:'FreeSans, Normal';text-align:center;text-anchor:middle;stroke-width:0.5;stroke-linecap:round"
         id="path5790" />
      <path
         d="m 73.61359,31.612168 h -0.66463 v -0.266699 q 0.43179,-0.05503 0.56303,-0.1524 0.13123,-0.09737 0.2286,-0.4445 h 0.24553 V 33.75 h -0.37253 z"
         style="font-size:4.23333px;font-family:FreeSans;-inkscape-font-specification:'FreeSans, Normal';text-align:center;text-anchor:middle;stroke-width:0.5;stroke-linecap:round"
         id="path5792" />
      <path
         d="m 76.88595,30.748569 v 0.3683 h -1.24883 l -0.11853,0.838199 q 0.24976,-0.182033 0.55456,-0.182033 0.4318,0 0.6985,0.2794 0.27093,0.275166 0.27093,0.719666 0,0.474133 -0.28786,0.774699 -0.28787,0.300567 -0.74084,0.300567 -0.17356,0 -0.32173,-0.0381 -0.14393,-0.0381 -0.2413,-0.0889 -0.0931,-0.05503 -0.17356,-0.1397 -0.0762,-0.0889 -0.11854,-0.1524 -0.0381,-0.06773 -0.0762,-0.1651 -0.0339,-0.1016 -0.0423,-0.1397 -0.008,-0.0381 -0.0212,-0.110067 h 0.37254 q 0.13123,0.503767 0.61383,0.503767 0.3048,0 0.47836,-0.186267 0.1778,-0.186266 0.1778,-0.507999 0,-0.334433 -0.1778,-0.524933 -0.1778,-0.194733 -0.47836,-0.194733 -0.17357,0 -0.29633,0.0635 -0.12277,0.05927 -0.254,0.215899 h -0.3429 l 0.22436,-1.634065 z"
         style="font-size:4.23333px;font-family:FreeSans;-inkscape-font-specification:'FreeSans, Normal';text-align:center;text-anchor:middle;stroke-width:0.5;stroke-linecap:round"
         id="path5794" />
      <path
         d="m 78.82058,33.75 h -0.42333 l -1.10913,-3.086097 h 0.42333 l 0.90593,2.611964 0.85513,-2.611964 h 0.4191 z"
         style="font-size:4.23333px;font-family:FreeSans;-inkscape-font-specification:'FreeSans, Normal';text-align:center;text-anchor:middle;stroke-width:0.5;stroke-linecap:round"
         id="path5796" />
    </symbol>
    <symbol
       id="g6182">
      <path
         style="fill:none;fill-opacity:1;stroke:#000000;stroke-width:1;stroke-linecap:square;stroke-linejoin:miter;stroke-miterlimit:4;stroke-dasharray:none;stroke-dashoffset:0;stroke-opacity:1"
         d="m 8.75,45 h 7.5"
         id="path5680" />
      <path
         style="fill:none;fill-opacity:1;stroke:#000000;stroke-width:0.5;stroke-linecap:round;stroke-linejoin:miter;stroke-miterlimit:4;stroke-dasharray:none;stroke-dashoffset:0;stroke-opacity:1"
         d="M 12.5,42.5 V 45"
         id="path5682"
         sodipodi:nodetypes="cc" />
      <path
         d="M 11.04158,49.336098 H 10.61824 L 9.50911,46.25 H 9.93244 L 10.83838,48.861965 11.69351,46.25 h 0.4191 z"
         style="font-size:4.23333px;font-family:FreeSans;-inkscape-font-specification:'FreeSans, Normal';text-align:center;text-anchor:middle;stroke-width:0.5;stroke-linecap:round"
         id="path5684" />
      <path
         d="m 12.65214,49.269211 v 0.687916 h 1.18322 v 0.225637 h -1.43912 v -2.005963 h 1.38959 v 0.225636 h -1.13369 v 0.641138 h 1.09241 v 0.225636 z"
         style="font-size:2.75166px;font-family:FreeSans;-inkscape-font-specification:'FreeSans, Normal';text-align:center;baseline-shift:sub;text-anchor:middle;stroke-width:0.499999;stroke-linecap:round"
         id="path5686" />
      <path
         d="m 14.39394,49.269211 v 0.687916 h 1.18322 v 0.225637 h -1.43912 v -2.005963 h 1.38959 v 0.225636 h -1.13369 v 0.641138 h 1.09241 v 0.225636 z"
         style="font-size:2.75166px;font-family:FreeSans;-inkscape-font-specification:'FreeSans, Normal';text-align:center;baseline-shift:sub;text-anchor:middle;stroke-width:0.499999;stroke-linecap:round"
         id="path5688" />
    </symbol>
    <symbol
       id="g6189">
      <path
         style="fill:none;fill-opacity:1;stroke:#000000;stroke-width:1;stroke-linecap:square;stroke-linejoin:miter;stroke-miterlimit:4;stroke-dasharray:none;stroke-dashoffset:0;stroke-opacity:1"
         d="m 21.25,45 h 7.5"
         id="path5666" />
      <path
         style="fill:none;fill-opacity:1;stroke:#000000;stroke-width:0.5;stroke-linecap:round;stroke-linejoin:miter;stroke-miterlimit:4;stroke-dasharray:none;stroke-dashoffset:0;stroke-opacity:1"
         d="M 25,42.5 V 45"
         id="path5668"
         sodipodi:nodetypes="cc" />
      <path
         d="M 23.44802,49.336098 H 23.02469 L 21.91555,46.25 h 0.42334 L 23.24482,48.861965 24.09995,46.25 h 0.4191 z"
         style="font-size:4.23333px;font-family:FreeSans;-inkscape-font-specification:'FreeSans, Normal';text-align:center;text-anchor:middle;stroke-width:0.5;stroke-linecap:round"
         id="path5670" />
      <path
         d="m 25.52361,50.020416 q 0.1541,0 0.26141,-0.03577 0.10732,-0.03577 0.15685,-0.09356 0.0523,-0.05778 0.0715,-0.112818 0.022,-0.05779 0.022,-0.121073 0,-0.228388 -0.36872,-0.324697 L 25.1686,49.200419 q -0.39349,-0.101812 -0.39349,-0.467783 0,-0.272415 0.18987,-0.42926 0.19261,-0.159596 0.52281,-0.159596 0.34671,0 0.53933,0.165099 0.19261,0.162349 0.19537,0.456777 h -0.24215 q -0.003,-0.195369 -0.13208,-0.299932 -0.12933,-0.107315 -0.36872,-0.107315 -0.20363,0 -0.32745,0.09356 -0.12107,0.09356 -0.12107,0.244898 0,0.11557 0.0743,0.18161 0.0743,0.06604 0.25591,0.11557 l 0.50355,0.134831 q 0.20362,0.05503 0.31369,0.187113 0.11282,0.13208 0.11282,0.316442 0,0.0798 -0.022,0.159596 -0.0193,0.07705 -0.0743,0.162349 -0.055,0.08255 -0.14034,0.145838 -0.0853,0.06329 -0.22838,0.104563 -0.14034,0.04127 -0.3192,0.04127 -0.11281,0 -0.21738,-0.01926 -0.10181,-0.01651 -0.20912,-0.06329 -0.10732,-0.04953 -0.18437,-0.123825 -0.077,-0.07705 -0.12932,-0.203623 -0.0495,-0.126577 -0.0523,-0.291676 h 0.24215 v 0.01376 q 0,0.0853 0.0248,0.159596 0.0275,0.07429 0.0853,0.145839 0.0605,0.07154 0.1761,0.11557 0.11833,0.04128 0.28067,0.04128 z"
         style="font-size:2.75166px;font-family:FreeSans;-inkscape-font-specification:'FreeSans, Normal';text-align:center;baseline-shift:sub;text-anchor:middle;stroke-width:0.499999;stroke-linecap:round"
         id="path5672" />
      <path
         d="m 27.35897,50.020416 q 0.1541,0 0.26141,-0.03577 0.10732,-0.03577 0.15685,-0.09356 0.0523,-0.05778 0.0715,-0.112818 0.022,-0.05779 0.022,-0.121073 0,-0.228388 -0.36872,-0.324697 l -0.49805,-0.132079 q -0.39349,-0.101812 -0.39349,-0.467783 0,-0.272415 0.18987,-0.42926 0.19261,-0.159596 0.52281,-0.159596 0.34671,0 0.53933,0.165099 0.19261,0.162349 0.19537,0.456777 H 27.8157 q -0.003,-0.195369 -0.13208,-0.299932 -0.12933,-0.107315 -0.36872,-0.107315 -0.20363,0 -0.32745,0.09356 -0.12107,0.09356 -0.12107,0.244898 0,0.11557 0.0743,0.18161 0.0743,0.06604 0.2559,0.11557 l 0.50356,0.134831 q 0.20362,0.05503 0.31369,0.187113 0.11282,0.13208 0.11282,0.316442 0,0.0798 -0.022,0.159596 -0.0193,0.07705 -0.0743,0.162349 -0.055,0.08255 -0.14034,0.145838 -0.0853,0.06329 -0.22838,0.104563 -0.14034,0.04127 -0.3192,0.04127 -0.11282,0 -0.21738,-0.01926 -0.10181,-0.01651 -0.20912,-0.06329 -0.10732,-0.04953 -0.18437,-0.123825 -0.077,-0.07705 -0.12932,-0.203623 -0.0495,-0.126577 -0.0523,-0.291676 h 0.24215 v 0.01376 q 0,0.0853 0.0248,0.159596 0.0275,0.07429 0.0853,0.145839 0.0605,0.07154 0.1761,0.11557 0.11832,0.04128 0.28067,0.04128 z"
         style="font-size:2.75166px;font-family:FreeSans;-inkscape-font-specification:'FreeSans, Normal';text-align:center;baseline-shift:sub;text-anchor:middle;stroke-width:0.499999;stroke-linecap:round"
         id="path5674" />
    </symbol>
    <symbol
       id="g6196">
      <path
         style="fill:none;fill-opacity:1;stroke:#000000;stroke-width:1;stroke-linecap:square;stroke-linejoin:miter;stroke-miterlimit:4;stroke-dasharray:none;stroke-dashoffset:0;stroke-opacity:1"
         d="m 46.25,45 h 7.5"
         id="path5740" />
      <path
         style="fill:none;fill-opacity:1;stroke:#000000;stroke-width:0.5;stroke-linecap:round;stroke-linejoin:miter;stroke-miterlimit:4;stroke-dasharray:none;stroke-dashoffset:0;stroke-opacity:1"
         d="M 50,42.5 V 45"
         id="path5742"
         sodipodi:nodetypes="cc" />
      <path
         d="m 48.04894,47.601833 v 0.296333 H 46 v -0.296333 z"
         style="font-size:4.23333px;font-family:FreeSans;-inkscape-font-specification:'FreeSans, Normal';text-align:center;text-anchor:middle;stroke-width:0.5;stroke-linecap:round"
         id="path5744" />
      <path
         d="m 50.70909,46.248569 v 0.3683 h -1.24884 l -0.11853,0.838199 q 0.24977,-0.182033 0.55457,-0.182033 0.4318,0 0.6985,0.2794 0.27093,0.275166 0.27093,0.719666 0,0.474133 -0.28787,0.774699 -0.28786,0.300567 -0.74083,0.300567 -0.17357,0 -0.32173,-0.0381 -0.14394,-0.0381 -0.2413,-0.0889 -0.0931,-0.05503 -0.17357,-0.1397 -0.0762,-0.0889 -0.11853,-0.1524 -0.0381,-0.06773 -0.0762,-0.1651 -0.0339,-0.1016 -0.0423,-0.1397 -0.008,-0.0381 -0.0212,-0.110066 h 0.37253 q 0.13123,0.503766 0.61383,0.503766 0.3048,0 0.47837,-0.186267 0.1778,-0.186266 0.1778,-0.507999 0,-0.334433 -0.1778,-0.524933 -0.1778,-0.194733 -0.47837,-0.194733 -0.17356,0 -0.29633,0.0635 -0.12277,0.05927 -0.254,0.215899 h -0.3429 l 0.22437,-1.634065 z"
         style="font-size:4.23333px;font-family:FreeSans;-inkscape-font-specification:'FreeSans, Normal';text-align:center;text-anchor:middle;stroke-width:0.5;stroke-linecap:round"
         id="path5746" />
      <path
         d="m 52.64372,49.25 h -0.42334 l -1.10913,-3.086097 h 0.42333 l 0.90594,2.611964 0.85513,-2.611964 h 0.4191 z"
         style="font-size:4.23333px;font-family:FreeSans;-inkscape-font-specification:'FreeSans, Normal';text-align:center;text-anchor:middle;stroke-width:0.5;stroke-linecap:round"
         id="path5748" />
    </symbol>
    <symbol
       id="g6204">
      <path
         style="fill:none;fill-opacity:1;stroke:#000000;stroke-width:1;stroke-linecap:square;stroke-linejoin:miter;stroke-miterlimit:4;stroke-dasharray:none;stroke-dashoffset:0;stroke-opacity:1"
         d="m 58.75,45 h 7.5"
         id="path5770" />
      <path
         style="fill:none;fill-opacity:1;stroke:#000000;stroke-width:0.5;stroke-linecap:round;stroke-linejoin:miter;stroke-miterlimit:4;stroke-dasharray:none;stroke-dashoffset:0;stroke-opacity:1"
         d="M 62.5,42.5 V 45"
         id="path5772"
         sodipodi:nodetypes="cc" />
      <path
         d="m 59.79893,47.601833 v 0.296333 H 57.75 v -0.296333 z"
         style="font-size:4.23333px;font-family:FreeSans;-inkscape-font-specification:'FreeSans, Normal';text-align:center;text-anchor:middle;stroke-width:0.5;stroke-linecap:round"
         id="path5774" />
      <path
         d="m 61.11359,47.112168 h -0.66463 v -0.266699 q 0.43179,-0.05503 0.56303,-0.1524 0.13123,-0.09737 0.2286,-0.4445 h 0.24553 V 49.25 h -0.37253 z"
         style="font-size:4.23333px;font-family:FreeSans;-inkscape-font-specification:'FreeSans, Normal';text-align:center;text-anchor:middle;stroke-width:0.5;stroke-linecap:round"
         id="path5776" />
      <path
         d="m 62.58255,47.289968 q 0.0296,-1.041399 0.9906,-1.041399 0.42757,0 0.69427,0.245533 0.2667,0.245533 0.2667,0.635 0,0.558799 -0.635,0.905932 l -0.42334,0.2286 q -0.27516,0.148167 -0.39369,0.287867 -0.11854,0.139699 -0.14817,0.330199 h 1.57903 V 49.25 h -1.99813 q 0.0254,-0.4953 0.19897,-0.761999 0.17356,-0.270933 0.64346,-0.537633 l 0.38947,-0.220133 q 0.4064,-0.232834 0.4064,-0.592667 0,-0.241299 -0.16934,-0.402166 -0.16933,-0.160866 -0.42333,-0.160866 -0.56303,0 -0.60536,0.715432 z"
         style="font-size:4.23333px;font-family:FreeSans;-inkscape-font-specification:'FreeSans, Normal';text-align:center;text-anchor:middle;stroke-width:0.5;stroke-linecap:round"
         id="path5778" />
      <path
         d="m 66.32058,49.25 h -0.42333 l -1.10913,-3.086097 h 0.42333 l 0.90593,2.611964 0.85513,-2.611964 h 0.4191 z"
         style="font-size:4.23333px;font-family:FreeSans;-inkscape-font-specification:'FreeSans, Normal';text-align:center;text-anchor:middle;stroke-width:0.5;stroke-linecap:round"
         id="path5780" />
    </symbol>
    <symbol
       id="g6212">
      <path
         style="fill:none;fill-opacity:1;stroke:#000000;stroke-width:1;stroke-linecap:square;stroke-linejoin:miter;stroke-miterlimit:4;stroke-dasharray:none;stroke-dashoffset:0;stroke-opacity:1"
         d="m 71.25,45 h 7.5"
         id="path5802" />
      <path
         style="fill:none;fill-opacity:1;stroke:#000000;stroke-width:0.5;stroke-linecap:round;stroke-linejoin:miter;stroke-miterlimit:4;stroke-dasharray:none;stroke-dashoffset:0;stroke-opacity:1"
         d="M 75,42.5 V 45"
         id="path5804"
         sodipodi:nodetypes="cc" />
      <path
         d="m 72.29893,47.601833 v 0.296333 H 70.25 v -0.296333 z"
         style="font-size:4.23333px;font-family:FreeSans;-inkscape-font-specification:'FreeSans, Normal';text-align:center;text-anchor:middle;stroke-width:0.5;stroke-linecap:round"
         id="path5806" />
      <path
         d="m 73.61359,47.112168 h -0.66463 v -0.266699 q 0.43179,-0.05503 0.56303,-0.1524 0.13123,-0.09737 0.2286,-0.4445 h 0.24553 V 49.25 h -0.37253 z"
         style="font-size:4.23333px;font-family:FreeSans;-inkscape-font-specification:'FreeSans, Normal';text-align:center;text-anchor:middle;stroke-width:0.5;stroke-linecap:round"
         id="path5808" />
      <path
         d="m 76.88595,46.248569 v 0.3683 h -1.24883 l -0.11853,0.838199 q 0.24976,-0.182033 0.55456,-0.182033 0.4318,0 0.6985,0.2794 0.27093,0.275166 0.27093,0.719666 0,0.474133 -0.28786,0.774699 -0.28787,0.300567 -0.74084,0.300567 -0.17356,0 -0.32173,-0.0381 -0.14393,-0.0381 -0.2413,-0.0889 -0.0931,-0.05503 -0.17356,-0.1397 -0.0762,-0.0889 -0.11854,-0.1524 -0.0381,-0.06773 -0.0762,-0.1651 -0.0339,-0.1016 -0.0423,-0.1397 -0.008,-0.0381 -0.0212,-0.110066 h 0.37254 q 0.13123,0.503766 0.61383,0.503766 0.3048,0 0.47836,-0.186267 0.1778,-0.186266 0.1778,-0.507999 0,-0.334433 -0.1778,-0.524933 -0.1778,-0.194733 -0.47836,-0.194733 -0.17357,0 -0.29633,0.0635 -0.12277,0.05927 -0.254,0.215899 h -0.3429 l 0.22436,-1.634065 z"
         style="font-size:4.23333px;font-family:FreeSans;-inkscape-font-specification:'FreeSans, Normal';text-align:center;text-anchor:middle;stroke-width:0.5;stroke-linecap:round"
         id="path5810" />
      <path
         d="m 78.82058,49.25 h -0.42333 l -1.10913,-3.086097 h 0.42333 l 0.90593,2.611964 0.85513,-2.611964 h 0.4191 z"
         style="font-size:4.23333px;font-family:FreeSans;-inkscape-font-specification:'FreeSans, Normal';text-align:center;text-anchor:middle;stroke-width:0.5;stroke-linecap:round"
         id="path5812" />
    </symbol>
  </defs>
  <g
     inkscape:label="Layer 1"
     inkscape:groupmode="layer"
     id="layer1">
    <use
       xlink:href="#g6096"
       id="use6218" />
    <use
       xlink:href="#g6100"
       id="use6229" />
    <use
       xlink:href="#g6103"
       id="use6244" />
    <use
       xlink:href="#g6106"
       id="use6262" />
    <use
       xlink:href="#g6109"
       id="use6283" />
    <use
       xlink:href="#g6113"
       id="use6308" />
    <use
       xlink:href="#g6117"
       id="use6338" />
    <use
       xlink:href="#g6123"
       id="use6375" />
    <use
       xlink:href="#g6129"
       id="use6421" />
    <use
       xlink:href="#g6136"
       id="use6477" />
    <use
       xlink:href="#g6143"
       id="use6544" />
    <use
       xlink:href="#g6152"
       id="use6624" />
    <use
       xlink:href="#g6159"
       id="use6717" />
    <use
       xlink:href="#g6167"
       id="use6822" />
    <use
       xlink:href="#g6175"
       id="use6940" />
    <use
       xlink:href="#g6182"
       id="use7070" />
    <use
       xlink:href="#g6189"
       id="use7211" />
    <use
       xlink:href="#g6196"
       id="use7363" />
    <use
       xlink:href="#g6204"
       id="use7527" />
    <use
       xlink:href="#g6212"
       id="use7704" />
  </g>
</svg>
