<?xml version="1.0" encoding="UTF-8" standalone="no"?>
<!-- Created with Inkscape (http://www.inkscape.org/) -->

<svg
   width="297mm"
   height="210mm"
   viewBox="0 0 297 210"
   version="1.1"
   id="svg1428"
   inkscape:version="1.2 (dc2aedaf03, 2022-05-15)"
   sodipodi:docname="Electrical - Transformers.svg"
   xmlns:inkscape="http://www.inkscape.org/namespaces/inkscape"
   xmlns:sodipodi="http://sodipodi.sourceforge.net/DTD/sodipodi-0.dtd"
   xmlns:xlink="http://www.w3.org/1999/xlink"
   xmlns="http://www.w3.org/2000/svg"
   xmlns:svg="http://www.w3.org/2000/svg">
  <sodipodi:namedview
     id="namedview1430"
     pagecolor="#ffffff"
     bordercolor="#000000"
     borderopacity="0.25"
     inkscape:showpageshadow="2"
     inkscape:pageopacity="0.0"
     inkscape:pagecheckerboard="0"
     inkscape:deskcolor="#d1d1d1"
     inkscape:document-units="mm"
     showgrid="true"
     inkscape:zoom="2.0435914"
     inkscape:cx="175.42646"
     inkscape:cy="68.506845"
     inkscape:window-width="1920"
     inkscape:window-height="1049"
     inkscape:window-x="1920"
     inkscape:window-y="0"
     inkscape:window-maximized="1"
     inkscape:current-layer="layer1">
    <inkscape:grid
       type="xygrid"
       id="grid1549"
       spacingx="0.5"
       spacingy="0.5"
       units="mm" />
  </sodipodi:namedview>
  <defs
     id="defs1425">
    <symbol
       id="g36658">
      <path
         style="fill:none;stroke:#000000;stroke-width:1;stroke-linecap:square;stroke-miterlimit:4;stroke-dasharray:none;stroke-opacity:1"
         d="M 16.625,7.5 V 27.499999"
         id="path36540"
         sodipodi:nodetypes="cc" />
      <path
         style="fill:none;stroke:#000000;stroke-width:1;stroke-linecap:square;stroke-miterlimit:4;stroke-dasharray:none;stroke-opacity:1"
         d="M 18.375,7.5 V 27.499999"
         id="path36542"
         sodipodi:nodetypes="cc" />
      <circle
         style="fill:#000000;fill-opacity:1;stroke:none;stroke-width:0.499999;stroke-linecap:butt;stroke-miterlimit:4;stroke-dasharray:none;stroke-dashoffset:0;stroke-opacity:1"
         id="circle36546"
         cx="13.125"
         cy="6.875"
         r="0.625" />
      <path
         style="fill:none;stroke:#000000;stroke-width:0.499999;stroke-linecap:round;stroke-linejoin:round;stroke-miterlimit:4;stroke-dasharray:none;stroke-opacity:1"
         d="m 10,7.5 c 0,0 3.75,0 3.75,2.5 0,2.5 -3.749999,2.5 -3.749999,2.5 0,0 3.749999,0 3.749999,2.5 0,2.5 -3.749999,2.5 -3.749999,2.5 0,0 3.749999,0 3.749999,2.5 0,2.5 -3.749999,2.5 -3.749999,2.5 0,0 3.749999,0 3.749999,2.5 0,2.5 -3.75,2.5 -3.75,2.5"
         id="path36548"
         sodipodi:nodetypes="cscscscsc" />
      <circle
         style="fill:#000000;fill-opacity:1;stroke:none;stroke-width:0.499999;stroke-linecap:butt;stroke-miterlimit:4;stroke-dasharray:none;stroke-dashoffset:0;stroke-opacity:1"
         id="circle36554"
         cx="-21.875"
         cy="6.875"
         r="0.625"
         transform="scale(-1,1)" />
      <path
         style="fill:none;stroke:#000000;stroke-width:0.499999;stroke-linecap:round;stroke-linejoin:round;stroke-miterlimit:4;stroke-dasharray:none;stroke-opacity:1"
         d="m 25,7.5 c 0,0 -3.75,0 -3.75,2.5 0,2.5 3.749999,2.5 3.749999,2.5 0,0 -3.749999,0 -3.749999,2.5 0,2.5 3.749999,2.5 3.749999,2.5 0,0 -3.749999,0 -3.749999,2.5 0,2.5 3.749999,2.5 3.749999,2.5 0,0 -3.749999,0 -3.749999,2.5 0,2.5 3.75,2.5 3.75,2.5"
         id="path36556"
         sodipodi:nodetypes="cscscscsc" />
    </symbol>
    <symbol
       id="g36670">
      <path
         style="fill:none;stroke:#000000;stroke-width:1.04674;stroke-linecap:butt;stroke-linejoin:round;stroke-dasharray:none"
         d="m 47.5,6.9999976 v 2.7391314 0"
         id="path36468" />
      <path
         style="fill:none;stroke:#000000;stroke-width:1.04674;stroke-linecap:butt;stroke-linejoin:round;stroke-dasharray:none"
         d="m 47.5,10.652172 v 2.739132 0"
         id="path36470" />
      <path
         style="fill:none;stroke:#000000;stroke-width:1.04674;stroke-linecap:butt;stroke-linejoin:round;stroke-dasharray:none"
         d="m 47.5,14.304347 v 2.73913 0"
         id="path36472" />
      <path
         style="fill:none;stroke:#000000;stroke-width:1.04674;stroke-linecap:butt;stroke-linejoin:round;stroke-dasharray:none"
         d="m 47.5,17.95652 v 2.739131 0"
         id="path36474" />
      <path
         style="fill:none;stroke:#000000;stroke-width:1.04674;stroke-linecap:butt;stroke-linejoin:round;stroke-dasharray:none"
         d="m 47.5,21.608695 v 2.73913 0"
         id="path36476" />
      <path
         style="fill:none;stroke:#000000;stroke-width:1.04674;stroke-linecap:butt;stroke-linejoin:round;stroke-dasharray:none"
         d="m 47.5,25.260868 v 2.739131 0"
         id="path36478" />
      <circle
         style="fill:#000000;fill-opacity:1;stroke:none;stroke-width:0.499999;stroke-linecap:butt;stroke-miterlimit:4;stroke-dasharray:none;stroke-dashoffset:0;stroke-opacity:1"
         id="circle36484"
         cx="43.125"
         cy="6.875"
         r="0.625" />
      <path
         style="fill:none;stroke:#000000;stroke-width:0.499999;stroke-linecap:round;stroke-linejoin:round;stroke-miterlimit:4;stroke-dasharray:none;stroke-opacity:1"
         d="m 40,7.5 c 0,0 3.75,0 3.75,2.5 0,2.5 -3.749999,2.5 -3.749999,2.5 0,0 3.749999,0 3.749999,2.5 0,2.5 -3.749999,2.5 -3.749999,2.5 0,0 3.749999,0 3.749999,2.5 0,2.5 -3.749999,2.5 -3.749999,2.5 0,0 3.749999,0 3.749999,2.5 0,2.5 -3.75,2.5 -3.75,2.5"
         id="path36486"
         sodipodi:nodetypes="cscscscsc" />
      <circle
         style="fill:#000000;fill-opacity:1;stroke:none;stroke-width:0.499999;stroke-linecap:butt;stroke-miterlimit:4;stroke-dasharray:none;stroke-dashoffset:0;stroke-opacity:1"
         id="circle36492"
         cx="-51.875"
         cy="6.875"
         r="0.625"
         transform="scale(-1,1)" />
      <path
         style="fill:none;stroke:#000000;stroke-width:0.499999;stroke-linecap:round;stroke-linejoin:round;stroke-miterlimit:4;stroke-dasharray:none;stroke-opacity:1"
         d="m 55,7.5 c 0,0 -3.75,0 -3.75,2.5 0,2.5 3.749999,2.5 3.749999,2.5 0,0 -3.749999,0 -3.749999,2.5 0,2.5 3.749999,2.5 3.749999,2.5 0,0 -3.749999,0 -3.749999,2.5 0,2.5 3.749999,2.5 3.749999,2.5 0,0 -3.749999,0 -3.749999,2.5 0,2.5 3.75,2.5 3.75,2.5"
         id="path36494"
         sodipodi:nodetypes="cscscscsc" />
    </symbol>
    <symbol
       id="g36676">
      <path
         style="fill:none;stroke:#000000;stroke-width:1;stroke-linecap:square;stroke-miterlimit:4;stroke-dasharray:none;stroke-opacity:1"
         d="M 79.125,7.5 V 32.499999"
         id="path36520"
         sodipodi:nodetypes="cc" />
      <path
         style="fill:none;stroke:#000000;stroke-width:1;stroke-linecap:square;stroke-miterlimit:4;stroke-dasharray:none;stroke-opacity:1"
         d="M 80.875,7.5 V 32.499999"
         id="path36522"
         sodipodi:nodetypes="cc" />
      <path
         style="fill:none;stroke:#000000;stroke-width:0.499999;stroke-linecap:round;stroke-linejoin:round;stroke-miterlimit:4;stroke-dasharray:none;stroke-opacity:1"
         d="m 87.5,12.5 c 0,0 -3.75,0 -3.75,2.5 0,2.5 3.749999,2.5 3.749999,2.5 0,0 -3.749999,0 -3.749999,2.5 0,2.5 3.749999,2.5 3.749999,2.5 0,0 -3.749999,0 -3.749999,2.5 0,2.5 3.749999,2.5 3.749999,2.5"
         id="path36530"
         sodipodi:nodetypes="cscscsc" />
      <path
         style="fill:none;stroke:#000000;stroke-width:0.5;stroke-linecap:round;stroke-linejoin:round;stroke-miterlimit:4;stroke-dasharray:none;stroke-opacity:1"
         d="m 72.5,7.5 c 0,0 3.75,0 3.75,2.5 0,2.5 -3.75,2.5 -3.75,2.5 0,0 3.75,0 3.75,2.5 0,2.5 -3.75,2.5 -3.75,2.5 0,0 3.75,0 3.75,2.5 0,2.5 -3.75,2.5 -3.75,2.5 0,0 3.75,0 3.75,2.5 0,2.5 -3.75,2.5 -3.75,2.5 0,0 3.75,0 3.75,2.5 0,2.5 -3.75,2.5 -3.75,2.5"
         id="path36536"
         sodipodi:nodetypes="cscscscscsc" />
    </symbol>
    <symbol
       id="symbol36812">
      <path
         style="fill:none;stroke:#000000;stroke-width:1;stroke-linecap:square;stroke-miterlimit:4;stroke-dasharray:none;stroke-opacity:1"
         d="M 12.5,35 V 55"
         id="path36516"
         sodipodi:nodetypes="cc" />
    </symbol>
    <symbol
       id="g36684">
      <path
         style="fill:none;stroke:#000000;stroke-width:1.04674;stroke-linecap:butt;stroke-linejoin:round;stroke-dasharray:none"
         d="m 17.5,34.5 v 2.739131 0"
         id="path36502" />
      <path
         style="fill:none;stroke:#000000;stroke-width:1.04674;stroke-linecap:butt;stroke-linejoin:round;stroke-dasharray:none"
         d="m 17.5,38.152174 v 2.739132 0"
         id="path36504" />
      <path
         style="fill:none;stroke:#000000;stroke-width:1.04674;stroke-linecap:butt;stroke-linejoin:round;stroke-dasharray:none"
         d="m 17.5,41.804349 v 2.73913 0"
         id="path36506" />
      <path
         style="fill:none;stroke:#000000;stroke-width:1.04674;stroke-linecap:butt;stroke-linejoin:round;stroke-dasharray:none"
         d="m 17.5,45.456522 v 2.739131 0"
         id="path36508" />
      <path
         style="fill:none;stroke:#000000;stroke-width:1.04674;stroke-linecap:butt;stroke-linejoin:round;stroke-dasharray:none"
         d="m 17.5,49.108697 v 2.73913 0"
         id="path36510" />
      <path
         style="fill:none;stroke:#000000;stroke-width:1.04674;stroke-linecap:butt;stroke-linejoin:round;stroke-dasharray:none"
         d="m 17.5,52.76087 v 2.739131 0"
         id="path36512" />
    </symbol>
    <symbol
       id="symbol36932">
      <path
         style="fill:none;stroke:#000000;stroke-width:0.499999;stroke-linecap:round;stroke-linejoin:round;stroke-miterlimit:4;stroke-dasharray:none;stroke-opacity:1"
         d="m 25,35 v 1.25 c 0,0 3.75,0 3.75,2.5 0,2.5 -3.749999,2.5 -3.749999,2.5 0,0 3.749999,0 3.749999,2.5 0,2.5 -3.749999,2.5 -3.749999,2.5 0,0 3.749999,0 3.749999,2.5 0,2.5 -3.749998,2.5 -3.749998,2.5 L 25,52.5"
         id="path6534"
         sodipodi:nodetypes="ccscscscc" />
    </symbol>
    <symbol
       id="g36688">
      <circle
         style="fill:#000000;fill-opacity:1;stroke:none;stroke-width:0.499999;stroke-linecap:butt;stroke-miterlimit:4;stroke-dasharray:none;stroke-dashoffset:0;stroke-opacity:1"
         id="circle11500"
         cx="35.625"
         cy="35.625"
         r="0.625" />
      <path
         style="fill:none;stroke:#000000;stroke-width:0.499999;stroke-linecap:round;stroke-linejoin:round;stroke-miterlimit:4;stroke-dasharray:none;stroke-opacity:1"
         d="m 32.5,35 v 1.25 c 0,0 3.75,0 3.75,2.5 0,2.5 -3.749999,2.5 -3.749999,2.5 0,0 3.749999,0 3.749999,2.5 0,2.5 -3.749999,2.5 -3.749999,2.5 0,0 3.749999,0 3.749999,2.5 0,2.5 -3.749998,2.5 -3.749998,2.5 L 32.5,52.5"
         id="path6545-4"
         sodipodi:nodetypes="ccscscscc" />
    </symbol>
    <symbol
       id="symbol37072">
      <path
         style="fill:none;stroke:#000000;stroke-width:0.499999;stroke-linecap:round;stroke-linejoin:round;stroke-miterlimit:4;stroke-dasharray:none;stroke-opacity:1"
         d="m 40,36.25 c 0,0 3.75,0 3.75,2.5 0,2.5 -3.75,2.5 -3.75,2.5 0,0 3.75,0 3.75,2.5 0,2.5 -3.75,2.5 -3.75,2.5"
         id="path6558"
         sodipodi:nodetypes="cscsc" />
    </symbol>
    <symbol
       id="symbol37147">
      <path
         style="fill:none;stroke:#000000;stroke-width:0.499999;stroke-linecap:round;stroke-miterlimit:4;stroke-dasharray:none;stroke-opacity:1"
         d="m 47.5,36.25 c 0,0 3.75,0 3.75,2.5 0,2.5 -3.75,2.5 -3.75,2.5"
         id="path6558-5"
         sodipodi:nodetypes="csc" />
    </symbol>
  </defs>
  <g
     inkscape:label="Layer 1"
     inkscape:groupmode="layer"
     id="layer1">
    <g
       id="g18223"
       transform="translate(-105,-12.5)" />
    <use
       xlink:href="#g36658"
       id="use36698" />
    <use
       xlink:href="#g36670"
       id="use36725" />
    <use
       xlink:href="#g36676"
       id="use36767" />
    <use
       xlink:href="#symbol36812"
       id="use36815" />
    <use
       xlink:href="#g36684"
       id="use36871" />
    <use
       xlink:href="#symbol36932"
       id="use36935" />
    <use
       xlink:href="#g36688"
       id="use37003" />
    <use
       xlink:href="#symbol37072"
       id="use37075" />
    <use
       xlink:href="#symbol37147"
       id="use37150" />
  </g>
</svg>
